<svg width="284" height="46" viewBox="0 0 284 46" fill="none" xmlns="http://www.w3.org/2000/svg">
<path d="M110.135 3.00013H9.53468C9.16798 3.00013 8.80568 3.00013 8.43995 3.00213C8.1338 3.00413 7.83009 3.00994 7.521 3.01483C6.84951 3.02273 6.17961 3.08181 5.5171 3.19154C4.85552 3.30366 4.21467 3.51505 3.61622 3.81854C3.0185 4.1246 2.47235 4.5223 1.99757 4.9972C1.5203 5.47077 1.12246 6.01815 0.81935 6.61829C0.5154 7.21724 0.304641 7.85907 0.19435 8.52161C0.0830109 9.18332 0.0230984 9.85265 0.01515 10.5236C0.00587 10.8302 0.00489 11.1378 0 11.4445V34.5587C0.00489 34.8692 0.00587 35.17 0.01515 35.4806C0.0231008 36.1516 0.0830134 36.8209 0.19435 37.4825C0.304336 38.1455 0.515108 38.7877 0.81935 39.3868C1.12233 39.985 1.52022 40.5302 1.99757 41.0011C2.47054 41.4781 3.01705 41.8761 3.61622 42.1798C4.21467 42.4841 4.85545 42.6968 5.5171 42.8106C6.17972 42.9195 6.84956 42.9786 7.521 42.9874C7.83009 42.9942 8.1338 42.9981 8.43995 42.9981C8.80567 43.0001 9.168 43.0001 9.53468 43.0001H110.135C110.494 43.0001 110.859 43.0001 111.219 42.9981C111.523 42.9981 111.836 42.9942 112.141 42.9874C112.811 42.9791 113.479 42.92 114.141 42.8106C114.804 42.696 115.448 42.4834 116.049 42.1798C116.647 41.8759 117.193 41.478 117.666 41.0011C118.142 40.5284 118.541 39.9836 118.848 39.3868C119.15 38.7872 119.358 38.1451 119.467 37.4825C119.578 36.8208 119.64 36.1516 119.652 35.4806C119.656 35.17 119.656 34.8692 119.656 34.5587C119.664 34.1954 119.664 33.8341 119.664 33.4649V12.5363C119.664 12.17 119.664 11.8068 119.656 11.4445C119.656 11.1378 119.656 10.8302 119.652 10.5236C119.64 9.85255 119.578 9.18337 119.467 8.52157C119.358 7.85941 119.149 7.21763 118.848 6.61825C118.23 5.41533 117.252 4.43616 116.049 3.81845C115.448 3.5157 114.804 3.30437 114.141 3.19145C113.48 3.08123 112.811 3.02214 112.141 3.01469C111.836 3.00981 111.523 3.00395 111.219 3.002C110.859 3 110.494 3 110.135 3V3.00013Z" fill="#A6A6A6"/>
<path d="M8.44487 42.125C8.14019 42.125 7.84287 42.1211 7.54058 42.1143C6.91436 42.1061 6.2896 42.0516 5.67144 41.9512C5.09503 41.8519 4.53664 41.6673 4.0147 41.4033C3.49754 41.1415 3.02585 40.7983 2.6177 40.3867C2.20364 39.98 1.85891 39.5082 1.59719 38.9902C1.33258 38.4688 1.14945 37.9099 1.05419 37.333C0.951311 36.7131 0.895651 36.0863 0.887687 35.458C0.881347 35.2471 0.873047 34.5449 0.873047 34.5449V11.4443C0.873047 11.4443 0.881887 10.7529 0.887737 10.5498C0.895363 9.92248 0.950699 9.29665 1.05327 8.67773C1.14871 8.09925 1.33197 7.53875 1.59673 7.01563C1.85749 6.49794 2.2003 6.02586 2.61187 5.61768C3.02297 5.20562 3.49617 4.8606 4.01421 4.59521C4.53495 4.33209 5.09228 4.14873 5.66753 4.05127C6.28772 3.94984 6.91465 3.895 7.54304 3.88721L8.44536 3.875H111.214L112.127 3.8877C112.75 3.8951 113.371 3.94945 113.985 4.05029C114.566 4.14898 115.13 4.33362 115.656 4.59814C116.694 5.13299 117.539 5.97916 118.071 7.01807C118.332 7.53758 118.512 8.09351 118.607 8.66699C118.71 9.29099 118.768 9.92174 118.78 10.5542C118.783 10.8374 118.783 11.1416 118.783 11.4443C118.791 11.8193 118.791 12.1763 118.791 12.5361V33.4648C118.791 33.8281 118.791 34.1826 118.783 34.54C118.783 34.8652 118.783 35.1631 118.779 35.4697C118.768 36.0909 118.711 36.7104 118.608 37.3232C118.515 37.9043 118.333 38.4675 118.068 38.9932C117.805 39.5056 117.462 39.9733 117.053 40.3789C116.644 40.7927 116.172 41.1379 115.653 41.4014C115.128 41.6674 114.566 41.8527 113.985 41.9512C113.367 42.0522 112.742 42.1067 112.116 42.1143C111.823 42.1211 111.517 42.125 111.219 42.125L110.135 42.127L8.44487 42.125Z" fill="black"/>
<path d="M24.769 23.3013C24.7797 22.4666 25.0014 21.6483 25.4135 20.9223C25.8255 20.1964 26.4145 19.5864 27.1256 19.1492C26.6738 18.5041 26.0779 17.9731 25.385 17.5986C24.6922 17.224 23.9216 17.0162 23.1344 16.9916C21.4552 16.8153 19.8272 17.9964 18.9715 17.9964C18.0992 17.9964 16.7817 17.0091 15.363 17.0383C14.4453 17.0679 13.551 17.3348 12.7671 17.8128C11.9832 18.2909 11.3365 18.9638 10.8901 19.7661C8.95607 23.1145 10.3987 28.0356 12.2513 30.7422C13.1782 32.0676 14.2615 33.548 15.6789 33.4955C17.066 33.438 17.584 32.611 19.2583 32.611C20.9171 32.611 21.4031 33.4955 22.8493 33.4621C24.3377 33.438 25.2754 32.1309 26.1698 30.793C26.8358 29.8486 27.3483 28.8049 27.6882 27.7005C26.8235 27.3347 26.0856 26.7226 25.5665 25.9403C25.0474 25.158 24.77 24.2402 24.769 23.3013Z" fill="white"/>
<path d="M22.0376 15.2113C22.8491 14.2371 23.2489 12.9849 23.1521 11.7207C21.9123 11.8509 20.767 12.4435 19.9445 13.3803C19.5424 13.838 19.2344 14.3704 19.0381 14.9472C18.8419 15.524 18.7612 16.1337 18.8008 16.7417C19.4209 16.7481 20.0344 16.6137 20.5951 16.3486C21.1558 16.0835 21.649 15.6946 22.0376 15.2113Z" fill="white"/>
<path d="M42.3027 30.1397H37.5693L36.4326 33.4961H34.4277L38.9111 21.0781H40.9941L45.4775 33.4961H43.4385L42.3027 30.1397ZM38.0596 28.5908H41.8116L39.962 23.1436H39.9102L38.0596 28.5908Z" fill="white"/>
<path d="M55.1602 28.9695C55.1602 31.7829 53.6543 33.5905 51.3819 33.5905C50.8062 33.6207 50.2337 33.4881 49.7299 33.2079C49.2261 32.9278 48.8114 32.5114 48.5332 32.0065H48.4902V36.4909H46.6318V24.4421H48.4307V25.948H48.4649C48.7558 25.4455 49.1776 25.0313 49.6852 24.7495C50.1928 24.4676 50.7674 24.3287 51.3477 24.3474C53.6455 24.3474 55.1602 26.1638 55.1602 28.9695ZM53.25 28.9695C53.25 27.1365 52.3028 25.9314 50.8574 25.9314C49.4375 25.9314 48.4824 27.1618 48.4824 28.9695C48.4824 30.7937 49.4375 32.0154 50.8574 32.0154C52.3028 32.0154 53.25 30.8191 53.25 28.9695Z" fill="white"/>
<path d="M65.1241 28.9694C65.1241 31.7829 63.6182 33.5905 61.3457 33.5905C60.7701 33.6206 60.1976 33.488 59.6938 33.2079C59.19 32.9278 58.7753 32.5114 58.4971 32.0065H58.4541V36.4909H56.5957V24.4421H58.3945V25.948H58.4287C58.7197 25.4455 59.1414 25.0313 59.649 24.7495C60.1567 24.4676 60.7312 24.3287 61.3115 24.3474C63.6094 24.3474 65.1241 26.1638 65.1241 28.9694ZM63.2139 28.9694C63.2139 27.1364 62.2666 25.9314 60.8213 25.9314C59.4014 25.9314 58.4463 27.1618 58.4463 28.9694C58.4463 30.7937 59.4014 32.0153 60.8213 32.0153C62.2666 32.0153 63.2139 30.8191 63.2139 28.9694H63.2139Z" fill="white"/>
<path d="M71.711 30.0362C71.8487 31.2676 73.045 32.0762 74.6797 32.0762C76.2461 32.0762 77.3731 31.2676 77.3731 30.1572C77.3731 29.1934 76.6934 28.6162 75.084 28.2207L73.4746 27.833C71.1944 27.2822 70.1358 26.2158 70.1358 24.4854C70.1358 22.3428 72.003 20.8711 74.6543 20.8711C77.2783 20.8711 79.0772 22.3428 79.1377 24.4854H77.2617C77.1494 23.2461 76.125 22.4981 74.6279 22.4981C73.1309 22.4981 72.1065 23.2549 72.1065 24.3565C72.1065 25.2344 72.7608 25.751 74.3613 26.1465L75.7295 26.4824C78.2773 27.0849 79.3359 28.1084 79.3359 29.9248C79.3359 32.248 77.4854 33.7031 74.542 33.7031C71.7881 33.7031 69.9287 32.2822 69.8086 30.0361L71.711 30.0362Z" fill="white"/>
<path d="M83.3476 22.2998V24.4424H85.0693V25.9141H83.3476V30.9053C83.3476 31.6807 83.6924 32.042 84.4492 32.042C84.6536 32.0384 84.8577 32.0241 85.0605 31.999V33.4619C84.7203 33.5255 84.3744 33.5543 84.0283 33.5478C82.1953 33.5478 81.4805 32.8593 81.4805 31.1035V25.9141H80.1641V24.4424H81.4804V22.2998H83.3476Z" fill="white"/>
<path d="M86.0664 28.9697C86.0664 26.1211 87.7441 24.3311 90.3604 24.3311C92.9854 24.3311 94.6553 26.1211 94.6553 28.9697C94.6553 31.8262 92.9941 33.6084 90.3604 33.6084C87.7275 33.6084 86.0664 31.8262 86.0664 28.9697ZM92.7617 28.9697C92.7617 27.0156 91.8662 25.8623 90.3603 25.8623C88.8545 25.8623 87.96 27.0244 87.96 28.9697C87.96 30.9316 88.8545 32.0762 90.3603 32.0762C91.8662 32.0762 92.7617 30.9316 92.7617 28.9697H92.7617Z" fill="white"/>
<path d="M96.1875 24.442H97.96V25.983H98.003C98.1229 25.5017 98.4048 25.0764 98.8014 24.7785C99.198 24.4806 99.6851 24.3284 100.181 24.3473C100.395 24.3465 100.608 24.3698 100.817 24.4166V26.1549C100.547 26.0723 100.265 26.0343 99.9824 26.0426C99.7124 26.0316 99.4433 26.0792 99.1935 26.1821C98.9436 26.285 98.719 26.4408 98.535 26.6386C98.351 26.8365 98.2121 27.0719 98.1276 27.3286C98.0432 27.5852 98.0153 27.8571 98.0459 28.1256V33.4957H96.1875L96.1875 24.442Z" fill="white"/>
<path d="M109.386 30.8369C109.136 32.4805 107.535 33.6084 105.487 33.6084C102.854 33.6084 101.219 31.8437 101.219 29.0127C101.219 26.1729 102.862 24.3311 105.409 24.3311C107.914 24.3311 109.489 26.0518 109.489 28.7969V29.4336H103.095V29.5459C103.065 29.8791 103.107 30.2148 103.217 30.5306C103.327 30.8464 103.503 31.1352 103.734 31.3778C103.964 31.6203 104.243 31.8111 104.553 31.9374C104.863 32.0637 105.196 32.1226 105.53 32.1103C105.969 32.1515 106.41 32.0498 106.787 31.8203C107.164 31.5909 107.456 31.246 107.621 30.8369L109.386 30.8369ZM103.104 28.1348H107.63C107.647 27.8352 107.601 27.5354 107.496 27.2541C107.392 26.9729 107.23 26.7164 107.022 26.5006C106.813 26.2849 106.562 26.1145 106.285 26.0003C106.007 25.8861 105.709 25.8305 105.409 25.8369C105.107 25.8351 104.807 25.8933 104.527 26.008C104.246 26.1227 103.992 26.2918 103.778 26.5054C103.563 26.7191 103.393 26.973 103.278 27.2527C103.162 27.5323 103.103 27.8321 103.104 28.1348V28.1348Z" fill="white"/>
<path d="M37.8262 11.7304C38.2158 11.7024 38.6067 11.7613 38.9709 11.9027C39.335 12.0442 39.6632 12.2647 39.9317 12.5483C40.2003 12.8319 40.4026 13.1716 40.524 13.5429C40.6454 13.9141 40.6829 14.3077 40.6338 14.6952C40.6338 16.6015 39.6035 17.6972 37.8262 17.6972H35.6709V11.7304H37.8262ZM36.5976 16.8534H37.7226C38.0011 16.87 38.2797 16.8244 38.5382 16.7198C38.7967 16.6152 39.0287 16.4542 39.2172 16.2487C39.4057 16.0431 39.546 15.7981 39.6278 15.5315C39.7097 15.2648 39.7311 14.9833 39.6904 14.7074C39.7281 14.4326 39.7046 14.1528 39.6215 13.8881C39.5383 13.6235 39.3977 13.3805 39.2096 13.1765C39.0216 12.9726 38.7907 12.8128 38.5337 12.7086C38.2766 12.6043 37.9996 12.5582 37.7226 12.5736H36.5976V16.8534Z" fill="white"/>
<path d="M41.6809 15.4438C41.6526 15.1479 41.6865 14.8493 41.7803 14.5672C41.8742 14.2852 42.0259 14.0258 42.2259 13.8059C42.4258 13.5859 42.6695 13.4101 42.9414 13.2898C43.2132 13.1696 43.5072 13.1074 43.8045 13.1074C44.1017 13.1074 44.3957 13.1696 44.6676 13.2898C44.9394 13.4101 45.1832 13.5859 45.3831 13.8059C45.583 14.0258 45.7348 14.2852 45.8286 14.5672C45.9225 14.8493 45.9563 15.1479 45.928 15.4438C45.9569 15.74 45.9234 16.039 45.8298 16.3215C45.7362 16.6041 45.5846 16.8639 45.3846 17.0843C45.1846 17.3047 44.9407 17.4808 44.6686 17.6014C44.3964 17.7219 44.1021 17.7842 43.8045 17.7842C43.5069 17.7842 43.2125 17.7219 42.9404 17.6014C42.6683 17.4808 42.4244 17.3047 42.2244 17.0843C42.0244 16.8639 41.8727 16.6041 41.7791 16.3215C41.6855 16.039 41.6521 15.74 41.6809 15.4438ZM45.0139 15.4438C45.0139 14.4677 44.5755 13.8969 43.8059 13.8969C43.0335 13.8969 42.5989 14.4677 42.5989 15.4438C42.5989 16.4277 43.0335 16.9941 43.8059 16.9941C44.5755 16.9941 45.014 16.4238 45.014 15.4438H45.0139Z" fill="white"/>
<path d="M51.5732 17.6973H50.6514L49.7207 14.3809H49.6504L48.7236 17.6973H47.8105L46.5693 13.1943H47.4707L48.2773 16.6303H48.3438L49.2695 13.1943H50.1221L51.0479 16.6303H51.1182L51.9209 13.1943H52.8096L51.5732 17.6973Z" fill="white"/>
<path d="M53.8535 13.1939H54.709V13.9092H54.7754C54.888 13.6523 55.0781 13.4369 55.3189 13.2931C55.5598 13.1493 55.8395 13.0842 56.1191 13.107C56.3382 13.0905 56.5582 13.1235 56.7628 13.2036C56.9674 13.2837 57.1514 13.4088 57.3011 13.5697C57.4508 13.7305 57.5623 13.923 57.6275 14.1328C57.6927 14.3426 57.7099 14.5644 57.6777 14.7818V17.6968H56.7891V15.0049C56.7891 14.2813 56.4746 13.9214 55.8174 13.9214C55.6686 13.9145 55.5201 13.9398 55.3821 13.9957C55.244 14.0515 55.1197 14.1365 55.0175 14.2449C54.9154 14.3533 54.8379 14.4825 54.7904 14.6236C54.7429 14.7647 54.7264 14.9145 54.7422 15.0625V17.6968H53.8535L53.8535 13.1939Z" fill="white"/>
<path d="M59.0938 11.4365H59.9824V17.6973H59.0938V11.4365Z" fill="white"/>
<path d="M61.2171 15.4439C61.1888 15.1479 61.2226 14.8494 61.3165 14.5673C61.4104 14.2852 61.5621 14.0259 61.7621 13.8059C61.9621 13.5859 62.2058 13.4101 62.4777 13.2898C62.7495 13.1696 63.0435 13.1074 63.3408 13.1074C63.6381 13.1074 63.9321 13.1696 64.204 13.2898C64.4759 13.4101 64.7196 13.5859 64.9196 13.8059C65.1195 14.0259 65.2713 14.2852 65.3652 14.5673C65.459 14.8494 65.4929 15.1479 65.4646 15.4439C65.4934 15.7401 65.4599 16.0391 65.3663 16.3216C65.2727 16.6042 65.121 16.864 64.921 17.0844C64.721 17.3048 64.4771 17.4809 64.2049 17.6014C63.9328 17.722 63.6385 17.7842 63.3408 17.7842C63.0432 17.7842 62.7489 17.722 62.4767 17.6014C62.2046 17.4809 61.9607 17.3048 61.7607 17.0844C61.5607 16.864 61.409 16.6042 61.3153 16.3216C61.2217 16.0391 61.1882 15.7401 61.2171 15.4439ZM64.5501 15.4439C64.5501 14.4678 64.1116 13.897 63.3421 13.897C62.5696 13.897 62.1351 14.4678 62.1351 15.4439C62.1351 16.4278 62.5696 16.9942 63.3421 16.9942C64.1116 16.9942 64.5501 16.4239 64.5501 15.4439H64.5501Z" fill="white"/>
<path d="M66.4004 16.4238C66.4004 15.6133 67.0039 15.146 68.0752 15.0796L69.2949 15.0093V14.6206C69.2949 14.145 68.9805 13.8765 68.373 13.8765C67.877 13.8765 67.5332 14.0586 67.4346 14.377H66.5742C66.665 13.6035 67.3926 13.1074 68.4141 13.1074C69.543 13.1074 70.1797 13.6694 70.1797 14.6206V17.6973H69.3242V17.0645H69.2539C69.1112 17.2914 68.9108 17.4765 68.6732 17.6007C68.4355 17.7249 68.1692 17.7838 67.9014 17.7715C67.7123 17.7911 67.5213 17.7709 67.3405 17.7122C67.1598 17.6536 66.9933 17.5576 66.8519 17.4307C66.7105 17.3037 66.5972 17.1485 66.5195 16.9751C66.4417 16.8017 66.4011 16.6139 66.4004 16.4238ZM69.2949 16.0391V15.6626L68.1953 15.7329C67.5752 15.7744 67.2939 15.9853 67.2939 16.3823C67.2939 16.7876 67.6455 17.0234 68.1289 17.0234C68.2706 17.0378 68.4137 17.0235 68.5497 16.9814C68.6857 16.9393 68.8118 16.8703 68.9206 16.7784C69.0294 16.6866 69.1186 16.5738 69.1829 16.4468C69.2472 16.3198 69.2853 16.1811 69.2949 16.0391Z" fill="white"/>
<path d="M71.3477 15.4439C71.3477 14.021 72.0791 13.1196 73.2168 13.1196C73.4982 13.1067 73.7775 13.1741 74.022 13.314C74.2666 13.4539 74.4662 13.6605 74.5977 13.9096H74.6641V11.4365H75.5527V17.6973H74.7012V16.9858H74.6309C74.4893 17.2333 74.2826 17.4374 74.0334 17.5758C73.7841 17.7143 73.5017 17.782 73.2168 17.7715C72.0713 17.7715 71.3477 16.8701 71.3477 15.4439ZM72.2657 15.4439C72.2657 16.3989 72.7159 16.9737 73.4688 16.9737C74.2178 16.9737 74.6807 16.3907 74.6807 15.4478C74.6807 14.5093 74.2129 13.918 73.4688 13.918C72.7207 13.918 72.2656 14.4966 72.2656 15.4439H72.2657Z" fill="white"/>
<path d="M79.2307 15.4438C79.2024 15.1479 79.2363 14.8493 79.3301 14.5672C79.424 14.2852 79.5757 14.0258 79.7757 13.8059C79.9756 13.5859 80.2193 13.4101 80.4912 13.2898C80.763 13.1696 81.057 13.1074 81.3543 13.1074C81.6516 13.1074 81.9455 13.1696 82.2174 13.2898C82.4892 13.4101 82.7329 13.5859 82.9329 13.8059C83.1328 14.0258 83.2846 14.2852 83.3784 14.5672C83.4723 14.8493 83.5061 15.1479 83.4778 15.4438C83.5067 15.74 83.4732 16.039 83.3796 16.3215C83.286 16.6041 83.1344 16.8639 82.9344 17.0843C82.7344 17.3047 82.4905 17.4808 82.2184 17.6014C81.9462 17.7219 81.6519 17.7842 81.3543 17.7842C81.0567 17.7842 80.7623 17.7219 80.4902 17.6014C80.2181 17.4808 79.9742 17.3047 79.7742 17.0843C79.5742 16.8639 79.4225 16.6041 79.3289 16.3215C79.2353 16.039 79.2019 15.74 79.2307 15.4438ZM82.5637 15.4438C82.5637 14.4677 82.1253 13.8969 81.3557 13.8969C80.5833 13.8969 80.1487 14.4677 80.1487 15.4438C80.1487 16.4277 80.5833 16.9941 81.3557 16.9941C82.1253 16.9941 82.5637 16.4238 82.5637 15.4438Z" fill="white"/>
<path d="M84.6699 13.1939H85.5254V13.9092H85.5918C85.7045 13.6523 85.8945 13.4369 86.1353 13.2931C86.3762 13.1493 86.6559 13.0842 86.9356 13.107C87.1547 13.0905 87.3746 13.1235 87.5792 13.2036C87.7838 13.2837 87.9678 13.4088 88.1175 13.5697C88.2672 13.7305 88.3787 13.923 88.4439 14.1328C88.5091 14.3426 88.5263 14.5644 88.4941 14.7818V17.6968H87.6055V15.0049C87.6055 14.2813 87.291 13.9214 86.6338 13.9214C86.485 13.9145 86.3365 13.9398 86.1985 13.9957C86.0604 14.0515 85.9361 14.1365 85.8339 14.2449C85.7318 14.3533 85.6543 14.4825 85.6068 14.6236C85.5593 14.7647 85.5428 14.9145 85.5586 15.0625V17.6968H84.6699V13.1939Z" fill="white"/>
<path d="M93.5146 12.0732V13.2148H94.4902V13.9634H93.5146V16.2788C93.5146 16.7505 93.709 16.957 94.1514 16.957C94.2646 16.9567 94.3778 16.9498 94.4902 16.9365V17.6768C94.3307 17.7053 94.169 17.7205 94.0068 17.7222C93.0186 17.7222 92.625 17.3745 92.625 16.5063V13.9633H91.9102V13.2148H92.625V12.0732H93.5146Z" fill="white"/>
<path d="M95.7051 11.4365H96.5859V13.918H96.6562C96.7744 13.6587 96.9696 13.4421 97.2153 13.2977C97.461 13.1534 97.7452 13.0883 98.0292 13.1113C98.2472 13.0995 98.4651 13.1359 98.6674 13.2179C98.8697 13.2999 99.0513 13.4256 99.1995 13.586C99.3476 13.7463 99.4585 13.9373 99.5243 14.1455C99.5901 14.3536 99.6091 14.5737 99.58 14.79V17.6973H98.6905V15.0093C98.6905 14.29 98.3555 13.9258 97.7276 13.9258C97.5748 13.9132 97.4212 13.9342 97.2774 13.9873C97.1337 14.0404 97.0032 14.1242 96.8952 14.2329C96.7872 14.3417 96.7043 14.4727 96.6522 14.6168C96.6002 14.761 96.5802 14.9147 96.5938 15.0674V17.6973H95.7051L95.7051 11.4365Z" fill="white"/>
<path d="M104.761 16.4815C104.641 16.8931 104.379 17.249 104.022 17.4872C103.666 17.7253 103.237 17.8305 102.81 17.7842C102.514 17.7921 102.219 17.7353 101.946 17.6177C101.674 17.5002 101.43 17.3248 101.232 17.1036C101.034 16.8825 100.887 16.6209 100.8 16.3371C100.713 16.0533 100.69 15.754 100.73 15.46C100.691 15.1652 100.715 14.8652 100.801 14.5805C100.888 14.2959 101.035 14.0331 101.231 13.81C101.428 13.587 101.671 13.4088 101.943 13.2876C102.214 13.1664 102.509 13.105 102.806 13.1075C104.059 13.1075 104.815 13.9635 104.815 15.3775V15.6876H101.635V15.7374C101.621 15.9026 101.642 16.069 101.696 16.2257C101.751 16.3825 101.837 16.5262 101.95 16.6476C102.063 16.7691 102.2 16.8656 102.352 16.931C102.504 16.9964 102.669 17.0292 102.835 17.0274C103.047 17.0529 103.263 17.0146 103.453 16.9174C103.644 16.8202 103.802 16.6685 103.906 16.4815L104.761 16.4815ZM101.635 15.0303H103.91C103.921 14.8792 103.9 14.7274 103.85 14.5847C103.799 14.442 103.718 14.3115 103.614 14.2016C103.51 14.0918 103.383 14.005 103.243 13.9468C103.103 13.8886 102.953 13.8604 102.801 13.8638C102.648 13.8619 102.495 13.8908 102.353 13.9487C102.21 14.0067 102.081 14.0925 101.972 14.2012C101.864 14.3099 101.778 14.4393 101.72 14.5817C101.662 14.7241 101.633 14.8766 101.635 15.0303H101.635Z" fill="white"/>
</svg>
